<?xml version="1.0" encoding="UTF-8"?>
<!DOCTYPE svg PUBLIC "-//W3C//DTD SVG 1.1//EN" "http://www.w3.org/Graphics/SVG/1.1/DTD/svg11.dtd">
<svg xmlns="http://www.w3.org/2000/svg" version="1.1" width="128px" height="128px" style="shape-rendering:geometricPrecision; text-rendering:geometricPrecision; image-rendering:optimizeQuality; fill-rule:evenodd; clip-rule:evenodd" xmlns:xlink="http://www.w3.org/1999/xlink">
<g><path style="opacity:0.986" fill="#f4d351" d="M 79.5,7.5 C 82.8333,9.16667 86.1667,10.8333 89.5,12.5C 88.1049,16.2901 86.4383,19.9568 84.5,23.5C 83.1667,23.1667 81.8333,22.8333 80.5,22.5C 80.33,21.1779 80.6634,20.0113 81.5,19C 80.451,18.5078 79.451,18.6744 78.5,19.5C 76.1478,15.7223 75.4811,15.7223 76.5,19.5C 74.7839,19.3713 73.1172,19.038 71.5,18.5C 39.0934,15.565 20.4267,30.2316 15.5,62.5C 16.0807,79.1652 23.0807,92.3319 36.5,102C 40.4343,104.221 41.101,103.721 38.5,100.5C 39.0241,98.6943 39.6908,97.0276 40.5,95.5C 39.5331,100.367 41.5331,102.534 46.5,102C 44.8333,102.333 43.1667,102.667 41.5,103C 42.056,103.383 42.3893,103.883 42.5,104.5C 42.6107,105.117 42.944,105.617 43.5,106C 41.4207,109.324 39.7541,112.824 38.5,116.5C 15.7053,106.115 3.70533,88.2812 2.5,63C 4.60886,33.7657 19.6089,14.7657 47.5,6C 58.4372,3.68555 69.1039,4.18555 79.5,7.5 Z"/></g>
<g><path style="opacity:1" fill="#f0b92e" d="M 89.5,12.5 C 115.156,28.2686 124.323,50.9352 117,80.5C 106.627,107.681 86.7942,121.347 57.5,121.5C 50.6264,121.465 44.2931,119.798 38.5,116.5C 39.7541,112.824 41.4207,109.324 43.5,106C 42.944,105.617 42.6107,105.117 42.5,104.5C 48.5428,107.865 55.0428,109.198 62,108.5C 69.5629,109.359 76.3962,107.692 82.5,103.5C 98.6795,94.8384 107.013,81.1717 107.5,62.5C 106.222,45.5929 98.5549,32.5929 84.5,23.5C 86.4383,19.9568 88.1049,16.2901 89.5,12.5 Z"/></g>
<g><path style="opacity:1" fill="#cd6631" d="M 71.5,18.5 C 58.7999,18.6395 47.4666,22.6395 37.5,30.5C 34.7573,32.2393 32.7573,34.5726 31.5,37.5C 29.8784,38.1224 28.5451,39.1224 27.5,40.5C 27.6107,41.1174 27.944,41.6174 28.5,42C 25.7411,42.8343 24.7411,44.3343 25.5,46.5C 22.6753,47.9737 21.6753,50.1404 22.5,53C 21.5705,54.0769 20.9038,55.2436 20.5,56.5C 20.3284,57.4916 20.6618,58.1583 21.5,58.5C 20.9094,59.1515 20.2427,59.8182 19.5,60.5C 20.2427,61.1818 20.9094,61.8485 21.5,62.5C 18.8875,63.0955 18.8875,63.9288 21.5,65C 21.2716,65.3988 20.9382,65.5654 20.5,65.5C 21.5781,67.6216 21.5781,70.1216 20.5,73C 20.6842,74.3756 21.3509,75.2089 22.5,75.5C 22.5,75.8333 22.5,76.1667 22.5,76.5C 21.5291,77.9621 21.8624,79.2954 23.5,80.5C 24.2389,80.369 24.9056,80.5357 25.5,81C 24.4464,82.3876 24.2797,83.8876 25,85.5C 26.853,87.9025 28.6863,90.2359 30.5,92.5C 30.8333,93.5 31.5,94.1667 32.5,94.5C 32.5,94.8333 32.5,95.1667 32.5,95.5C 34.0905,97.6326 36.0905,99.2993 38.5,100.5C 41.101,103.721 40.4343,104.221 36.5,102C 23.0807,92.3319 16.0807,79.1652 15.5,62.5C 20.4267,30.2316 39.0934,15.565 71.5,18.5 Z"/></g>
<g><path style="opacity:1" fill="#fdf6e9" d="M 80.5,22.5 C 80.5,22.8333 80.5,23.1667 80.5,23.5C 78.5395,22.5522 76.5395,22.3855 74.5,23C 75.8228,22.1841 76.4894,21.0174 76.5,19.5C 75.4811,15.7223 76.1478,15.7223 78.5,19.5C 79.451,18.6744 80.451,18.5078 81.5,19C 80.6634,20.0113 80.33,21.1779 80.5,22.5 Z"/></g>
<g><path style="opacity:1" fill="#df8737" d="M 71.5,18.5 C 73.1172,19.038 74.7839,19.3713 76.5,19.5C 76.4894,21.0174 75.8228,22.1841 74.5,23C 76.5395,22.3855 78.5395,22.5522 80.5,23.5C 89.5406,27.5535 96.2073,34.5535 100.5,44.5C 100.768,46.099 100.434,47.4324 99.5,48.5C 99.5,48.8333 99.5,49.1667 99.5,49.5C 98.2825,50.1614 96.9492,50.8281 95.5,51.5C 95.9569,52.2975 96.6236,52.6309 97.5,52.5C 96.3143,53.9613 96.3143,55.2946 97.5,56.5C 98.1888,57.7072 98.3554,59.0406 98,60.5C 98.6667,59.8333 99.3333,59.1667 100,58.5C 100.671,59.2524 101.504,59.5858 102.5,59.5C 101.365,61.2132 99.698,61.8799 97.5,61.5C 97.4223,64.4867 98.589,65.1534 101,63.5C 101.945,63.9054 102.612,64.572 103,65.5C 103.333,63.8333 103.667,62.1667 104,60.5C 104.497,63.146 104.664,65.8127 104.5,68.5C 104.649,71.6074 104.149,74.6074 103,77.5C 101.582,82.0099 99.4151,86.0099 96.5,89.5C 96.3225,88.3052 95.9891,87.1385 95.5,86C 96.0104,84.1739 96.8438,84.0072 98,85.5C 98.4922,84.451 98.3256,83.451 97.5,82.5C 98.325,81.6143 99.325,81.281 100.5,81.5C 100.567,80.0413 100.234,78.7079 99.5,77.5C 98.2502,77.5774 97.4169,78.244 97,79.5C 95.3335,78.6598 95.1669,79.1598 96.5,81C 93.8333,81.6667 93.8333,82.3333 96.5,83C 94.3582,83.4384 93.0249,84.2718 92.5,85.5C 92.3739,82.5322 90.8739,80.5322 88,79.5C 87.1922,77.5767 86.6922,75.5767 86.5,73.5C 87.4349,69.6264 88.9349,65.9597 91,62.5C 91.1667,60.6667 91.3333,58.8333 91.5,57C 90.3993,50.0049 88.8993,43.1715 87,36.5C 84.5811,32.2484 81.0811,29.2484 76.5,27.5C 75.8933,27.6236 75.56,27.9569 75.5,28.5C 71.9359,27.5773 68.2693,27.244 64.5,27.5C 62.901,27.2322 61.5676,27.5655 60.5,28.5C 57.2459,28.7936 54.5792,30.127 52.5,32.5C 51.8333,32.5 51.5,32.8333 51.5,33.5C 49.9328,34.6808 49.0995,36.3474 49,38.5C 44.3161,41.5326 41.9828,45.8659 42,51.5C 39.8116,53.6884 37.6449,55.8551 35.5,58C 35.9304,59.4341 36.7638,60.6008 38,61.5C 38.49,62.7932 38.6567,64.1266 38.5,65.5C 39.8221,65.67 40.9887,65.3366 42,64.5C 42.6667,65.8333 42.6667,67.1667 42,68.5C 40.951,66.8934 39.451,66.2267 37.5,66.5C 36.6529,69.1595 36.1529,71.8262 36,74.5C 39.1078,76.073 42.2744,77.573 45.5,79C 43.1287,84.2809 41.4621,89.7809 40.5,95.5C 39.6908,97.0276 39.0241,98.6943 38.5,100.5C 36.0905,99.2993 34.0905,97.6326 32.5,95.5C 34.7565,94.4382 35.9232,92.7715 36,90.5C 34.6244,91.7051 33.4577,93.0384 32.5,94.5C 31.5,94.1667 30.8333,93.5 30.5,92.5C 31.3058,91.0028 31.9724,89.3361 32.5,87.5C 31.2713,86.7189 29.938,86.2189 28.5,86C 29.4506,85.2825 29.6172,84.4491 29,83.5C 27.8173,84.731 26.6507,84.731 25.5,83.5C 30.0622,82.8602 30.3955,81.6936 26.5,80C 27.4506,79.2825 27.6172,78.4491 27,77.5C 25.8549,78.6364 24.6883,79.6364 23.5,80.5C 21.8624,79.2954 21.5291,77.9621 22.5,76.5C 22.4346,76.9382 22.6012,77.2716 23,77.5C 24.0674,76.8095 25.2341,76.3095 26.5,76C 25.3595,75.2588 25.3595,74.4255 26.5,73.5C 24.6934,72.2009 23.0268,72.3676 21.5,74C 22.1667,74.3333 22.8333,74.6667 23.5,75C 23.2716,75.3988 22.9382,75.5654 22.5,75.5C 21.3509,75.2089 20.6842,74.3756 20.5,73C 21.5781,70.1216 21.5781,67.6216 20.5,65.5C 21.8488,66.7965 23.1821,66.6298 24.5,65C 23.1854,63.6054 23.5188,62.6054 25.5,62C 24.0715,61.4209 22.7382,61.5876 21.5,62.5C 20.9094,61.8485 20.2427,61.1818 19.5,60.5C 20.2427,59.8182 20.9094,59.1515 21.5,58.5C 22.8734,58.6567 24.2068,58.49 25.5,58C 23.7756,57.5518 23.109,56.7185 23.5,55.5C 22.5832,56.1272 21.5832,56.4606 20.5,56.5C 20.9038,55.2436 21.5705,54.0769 22.5,53C 21.6753,50.1404 22.6753,47.9737 25.5,46.5C 26.7206,47.0283 27.8873,47.695 29,48.5C 29.6172,47.5509 29.4506,46.7175 28.5,46C 31.6582,44.8619 33.1582,42.6952 33,39.5C 32.6121,40.428 31.9454,41.0946 31,41.5C 29.8615,41.0109 28.6948,40.6775 27.5,40.5C 28.5451,39.1224 29.8784,38.1224 31.5,37.5C 33.288,37.7852 34.9547,37.4519 36.5,36.5C 34.2524,35.676 34.0858,34.676 36,33.5C 37,34.5 38,35.5 39,36.5C 38.0655,34.3973 37.5655,32.3973 37.5,30.5C 47.4666,22.6395 58.7999,18.6395 71.5,18.5 Z"/></g>
<g><path style="opacity:1" fill="#fefbef" d="M 28.5,20.5 C 30.2252,20.8425 30.7252,21.8425 30,23.5C 28.7365,25.607 26.9032,26.607 24.5,26.5C 24.6574,23.6824 25.9908,21.6824 28.5,20.5 Z"/></g>
<g><path style="opacity:0.919" fill="#c5652e" d="M 79.5,7.5 C 107.933,15.4907 122.933,34.324 124.5,64C 122.73,91.4293 109.063,110.096 83.5,120C 74.7822,122.421 66.1155,122.921 57.5,121.5C 86.7942,121.347 106.627,107.681 117,80.5C 124.323,50.9352 115.156,28.2686 89.5,12.5C 86.1667,10.8333 82.8333,9.16667 79.5,7.5 Z"/></g>
<g><path style="opacity:1" fill="#f9df48" d="M 60.5,28.5 C 63.1834,28.2266 64.6834,29.2266 65,31.5C 62.8914,31.4339 60.7247,31.1005 58.5,30.5C 56.677,31.7472 54.677,32.4139 52.5,32.5C 54.5792,30.127 57.2459,28.7936 60.5,28.5 Z"/></g>
<g><path style="opacity:1" fill="#fdf9e7" d="M 21.5,28.5 C 22.6878,30.4959 22.0211,31.3293 19.5,31C 20.3805,30.2917 21.0472,29.4584 21.5,28.5 Z"/></g>
<g><path style="opacity:1" fill="#efba41" d="M 60.5,28.5 C 61.5676,27.5655 62.901,27.2322 64.5,27.5C 67.848,28.6671 70.5146,30.8337 72.5,34C 70.5,34.6667 68.5,34.6667 66.5,34C 67.5,33.6667 68.5,33.3333 69.5,33C 66.1667,32.3333 62.8333,32.3333 59.5,33C 60.5,33.3333 61.5,33.6667 62.5,34C 60.444,34.3108 58.444,34.8108 56.5,35.5C 55.3044,35.1543 55.3044,34.6543 56.5,34C 54.6194,34.096 52.9527,33.9293 51.5,33.5C 51.5,32.8333 51.8333,32.5 52.5,32.5C 54.677,32.4139 56.677,31.7472 58.5,30.5C 60.7247,31.1005 62.8914,31.4339 65,31.5C 64.6834,29.2266 63.1834,28.2266 60.5,28.5 Z"/></g>
<g><path style="opacity:1" fill="#fae148" d="M 64.5,27.5 C 68.2693,27.244 71.9359,27.5773 75.5,28.5C 81.6115,31.2647 84.9448,35.9314 85.5,42.5C 83.6916,42.4914 82.0249,42.9914 80.5,44C 81.5171,45.0495 81.6838,46.2161 81,47.5C 79.2817,46.1498 77.4484,44.9832 75.5,44C 76.4491,43.3828 77.2825,43.5494 78,44.5C 78.4696,43.4232 78.3029,42.4232 77.5,41.5C 75.8008,41.3398 74.1341,41.5065 72.5,42C 74.9288,42.4512 75.0955,43.2845 73,44.5C 72.2825,43.5494 71.4491,43.3828 70.5,44C 72.9371,45.2788 73.4371,46.7788 72,48.5C 69.9339,46.5499 67.7673,44.7166 65.5,43C 65.9054,42.0546 66.572,41.3879 67.5,41C 66.1279,40.5983 64.7946,40.0983 63.5,39.5C 63.891,40.7185 63.2244,41.5518 61.5,42C 62.9603,43.582 64.627,44.9153 66.5,46C 64.1667,46.6667 61.8333,46.6667 59.5,46C 63.3863,45.4215 63.3863,44.5881 59.5,43.5C 56.7921,46.0928 57.4588,47.4261 61.5,47.5C 61.2322,49.099 61.5655,50.4324 62.5,51.5C 63.8333,53.1667 65.1667,54.8333 66.5,56.5C 66.5654,56.9382 66.3988,57.2716 66,57.5C 64.4943,54.526 62.8276,54.1927 61,56.5C 60.6667,54.8333 60.3333,53.1667 60,51.5C 59.6608,54.036 59.1608,56.536 58.5,59C 59.2173,60.531 60.2173,61.8643 61.5,63C 60.3047,64.5325 60.3047,66.0325 61.5,67.5C 65.5,68.3333 69.5,69.1667 73.5,70C 75.019,73.0509 76.019,76.2176 76.5,79.5C 77.1061,83.033 78.2728,86.3663 80,89.5C 80.3336,87.1527 80.167,84.8194 79.5,82.5C 78.9969,78.5762 80.6636,76.2428 84.5,75.5C 84.8923,77.1789 85.3923,78.8455 86,80.5C 90.4221,82.7914 90.5888,85.4581 86.5,88.5C 82.8766,86.8048 82.8766,85.3048 86.5,84C 84.9391,83.6824 83.7724,82.8491 83,81.5C 82.3333,83.5 82.3333,85.5 83,87.5C 83.2355,89.1193 84.0689,90.1193 85.5,90.5C 85.6715,92.4918 85.0049,94.1585 83.5,95.5C 84.1799,96.8599 84.8466,98.1932 85.5,99.5C 84.7888,101.03 83.7888,102.363 82.5,103.5C 76.3962,107.692 69.5629,109.359 62,108.5C 55.0428,109.198 48.5428,107.865 42.5,104.5C 42.3893,103.883 42.056,103.383 41.5,103C 43.1667,102.667 44.8333,102.333 46.5,102C 41.5331,102.534 39.5331,100.367 40.5,95.5C 41.4621,89.7809 43.1287,84.2809 45.5,79C 42.2744,77.573 39.1078,76.073 36,74.5C 36.1529,71.8262 36.6529,69.1595 37.5,66.5C 39.451,66.2267 40.951,66.8934 42,68.5C 42.6667,67.1667 42.6667,65.8333 42,64.5C 40.9887,65.3366 39.8221,65.67 38.5,65.5C 38.6567,64.1266 38.49,62.7932 38,61.5C 36.7638,60.6008 35.9304,59.4341 35.5,58C 37.6449,55.8551 39.8116,53.6884 42,51.5C 41.9828,45.8659 44.3161,41.5326 49,38.5C 49.0995,36.3474 49.9328,34.6808 51.5,33.5C 52.9527,33.9293 54.6194,34.096 56.5,34C 55.3044,34.6543 55.3044,35.1543 56.5,35.5C 58.444,34.8108 60.444,34.3108 62.5,34C 61.5,33.6667 60.5,33.3333 59.5,33C 62.8333,32.3333 66.1667,32.3333 69.5,33C 68.5,33.3333 67.5,33.6667 66.5,34C 68.5,34.6667 70.5,34.6667 72.5,34C 70.5146,30.8337 67.848,28.6671 64.5,27.5 Z"/></g>
<g><path style="opacity:1" fill="#eab33f" d="M 37.5,30.5 C 37.5655,32.3973 38.0655,34.3973 39,36.5C 38,35.5 37,34.5 36,33.5C 34.0858,34.676 34.2524,35.676 36.5,36.5C 34.9547,37.4519 33.288,37.7852 31.5,37.5C 32.7573,34.5726 34.7573,32.2393 37.5,30.5 Z"/></g>
<g><path style="opacity:1" fill="#eaaa3d" d="M 73.5,31.5 C 74.4286,32.9361 75.5952,34.2695 77,35.5C 77.3333,34.8333 77.6667,34.1667 78,33.5C 83.4931,36.3211 82.6597,37.1544 75.5,36C 73.9632,34.8904 73.2965,33.3904 73.5,31.5 Z"/></g>
<g><path style="opacity:1" fill="#ebae3e" d="M 58.5,36.5 C 60.6282,35.3709 62.9615,35.2042 65.5,36C 65.1667,36.3333 64.8333,36.6667 64.5,37C 66.087,37.8624 67.7536,38.5291 69.5,39C 65.5653,39.266 61.8987,38.4326 58.5,36.5 Z"/></g>
<g><path style="opacity:1" fill="#ebad3e" d="M 77.5,41.5 C 76.7375,40.7321 75.7375,40.2321 74.5,40C 75.8333,39.6667 77.1667,39.3333 78.5,39C 76.5,38.6667 74.5,38.3333 72.5,38C 75.2305,37.2716 77.8971,37.4383 80.5,38.5C 81.521,39.0016 81.6877,39.6683 81,40.5C 80.6667,40.1667 80.3333,39.8333 80,39.5C 79.5831,40.756 78.7498,41.4226 77.5,41.5 Z"/></g>
<g><path style="opacity:1" fill="#ebb53f" d="M 90.5,37.5 C 91.2389,37.369 91.9056,37.5357 92.5,38C 90.7397,38.9653 90.4063,40.132 91.5,41.5C 93.1349,42.3302 94.8016,42.4969 96.5,42C 93.8459,45.3485 91.3459,45.1818 89,41.5C 88.7003,39.9343 89.2003,38.601 90.5,37.5 Z"/></g>
<g><path style="opacity:1" fill="#e9b03e" d="M 25.5,46.5 C 24.7411,44.3343 25.7411,42.8343 28.5,42C 27.944,41.6174 27.6107,41.1174 27.5,40.5C 28.6948,40.6775 29.8615,41.0109 31,41.5C 31.9454,41.0946 32.6121,40.428 33,39.5C 33.1582,42.6952 31.6582,44.8619 28.5,46C 29.4506,46.7175 29.6172,47.5509 29,48.5C 27.8873,47.695 26.7206,47.0283 25.5,46.5 Z"/></g>
<g><path style="opacity:1" fill="#c3682d" d="M 75.5,28.5 C 75.56,27.9569 75.8933,27.6236 76.5,27.5C 81.0811,29.2484 84.5811,32.2484 87,36.5C 88.8993,43.1715 90.3993,50.0049 91.5,57C 91.3333,58.8333 91.1667,60.6667 91,62.5C 88.9349,65.9597 87.4349,69.6264 86.5,73.5C 86.6922,75.5767 87.1922,77.5767 88,79.5C 90.8739,80.5322 92.3739,82.5322 92.5,85.5C 91.5084,85.3284 90.8417,85.6618 90.5,86.5C 88.861,89.3785 87.5277,92.5452 86.5,96C 86.9891,97.1385 87.3225,98.3052 87.5,99.5C 86.8333,99.5 86.1667,99.5 85.5,99.5C 84.8466,98.1932 84.1799,96.8599 83.5,95.5C 85.0049,94.1585 85.6715,92.4918 85.5,90.5C 86.3382,90.1583 86.6716,89.4916 86.5,88.5C 90.5888,85.4581 90.4221,82.7914 86,80.5C 85.3923,78.8455 84.8923,77.1789 84.5,75.5C 84.298,73.0504 84.6314,70.717 85.5,68.5C 89.5135,63.0729 90.5135,57.0729 88.5,50.5C 87.4485,47.8069 86.4485,45.1402 85.5,42.5C 84.9448,35.9314 81.6115,31.2647 75.5,28.5 Z"/></g>
<g><path style="opacity:1" fill="#ebbb40" d="M 99.5,48.5 C 97.8632,49.2178 96.1966,49.3845 94.5,49C 95.9561,48.5774 96.4561,47.7441 96,46.5C 95.2825,47.4506 94.4491,47.6172 93.5,47C 94.6651,45.9164 95.9984,45.0831 97.5,44.5C 97.5675,45.7538 98.2342,47.0871 99.5,48.5 Z"/></g>
<g><path style="opacity:1" fill="#f0bf41" d="M 47.5,52.5 C 47.4431,51.391 47.1098,50.391 46.5,49.5C 46.9382,49.5654 47.2716,49.3988 47.5,49C 46.376,48.7508 45.376,48.2508 44.5,47.5C 47.2479,46.3561 49.0813,47.3561 50,50.5C 50.5798,53.5475 50.2465,53.8808 49,51.5C 48.6174,52.056 48.1174,52.3893 47.5,52.5 Z"/></g>
<g><path style="opacity:1" fill="#e39139" d="M 46.5,49.5 C 47.1098,50.391 47.4431,51.391 47.5,52.5C 45.9073,53.8672 44.5739,53.5339 43.5,51.5C 44.0047,50.0815 45.0047,49.4148 46.5,49.5 Z"/></g>
<g><path style="opacity:1" fill="#edbf41" d="M 99.5,49.5 C 100.043,49.56 100.376,49.8933 100.5,50.5C 99.3984,51.1757 98.3984,51.8423 97.5,52.5C 96.6236,52.6309 95.9569,52.2975 95.5,51.5C 96.9492,50.8281 98.2825,50.1614 99.5,49.5 Z"/></g>
<g><path style="opacity:1" fill="#f8dc47" d="M 88.5,50.5 C 90.5135,57.0729 89.5135,63.0729 85.5,68.5C 84.448,68.6495 83.448,68.4828 82.5,68C 83.3106,65.3801 84.6439,63.0468 86.5,61C 84.406,56.7822 81.7393,56.1155 78.5,59C 81.1348,61.1627 82.1348,63.6627 81.5,66.5C 78.1276,64.2573 76.1276,61.0906 75.5,57C 78.5443,56.6411 78.8776,55.9745 76.5,55C 79.2276,53.9138 81.8943,53.5804 84.5,54C 84.9615,52.2784 85.1282,50.445 85,48.5C 86.1127,49.305 87.2794,49.9717 88.5,50.5 Z"/></g>
<g><path style="opacity:1" fill="#f5ce44" d="M 77.5,41.5 C 78.3029,42.4232 78.4696,43.4232 78,44.5C 77.2825,43.5494 76.4491,43.3828 75.5,44C 77.4484,44.9832 79.2817,46.1498 81,47.5C 81.6838,46.2161 81.5171,45.0495 80.5,44C 82.0249,42.9914 83.6916,42.4914 85.5,42.5C 86.4485,45.1402 87.4485,47.8069 88.5,50.5C 87.2794,49.9717 86.1127,49.305 85,48.5C 85.1282,50.445 84.9615,52.2784 84.5,54C 81.8943,53.5804 79.2276,53.9138 76.5,55C 78.8776,55.9745 78.5443,56.6411 75.5,57C 76.1276,61.0906 78.1276,64.2573 81.5,66.5C 82.1348,63.6627 81.1348,61.1627 78.5,59C 81.7393,56.1155 84.406,56.7822 86.5,61C 84.6439,63.0468 83.3106,65.3801 82.5,68C 83.448,68.4828 84.448,68.6495 85.5,68.5C 84.6314,70.717 84.298,73.0504 84.5,75.5C 80.6636,76.2428 78.9969,78.5762 79.5,82.5C 78.6787,79.3586 78.1787,76.0252 78,72.5C 77.6667,72.1667 77.3333,71.8333 77,71.5C 76.5026,74.146 76.3359,76.8127 76.5,79.5C 76.019,76.2176 75.019,73.0509 73.5,70C 69.5,69.1667 65.5,68.3333 61.5,67.5C 60.3047,66.0325 60.3047,64.5325 61.5,63C 60.2173,61.8643 59.2173,60.531 58.5,59C 59.1608,56.536 59.6608,54.036 60,51.5C 60.3333,53.1667 60.6667,54.8333 61,56.5C 62.8276,54.1927 64.4943,54.526 66,57.5C 66.3988,57.2716 66.5654,56.9382 66.5,56.5C 67.4405,53.8749 68.6072,53.8749 70,56.5C 70.6667,55.8333 70.6667,55.1667 70,54.5C 68.4878,53.7433 67.1545,52.7433 66,51.5C 65.0138,52.1712 63.8471,52.1712 62.5,51.5C 61.5655,50.4324 61.2322,49.099 61.5,47.5C 57.4588,47.4261 56.7921,46.0928 59.5,43.5C 63.3863,44.5881 63.3863,45.4215 59.5,46C 61.8333,46.6667 64.1667,46.6667 66.5,46C 64.627,44.9153 62.9603,43.582 61.5,42C 63.2244,41.5518 63.891,40.7185 63.5,39.5C 64.7946,40.0983 66.1279,40.5983 67.5,41C 66.572,41.3879 65.9054,42.0546 65.5,43C 67.7673,44.7166 69.9339,46.5499 72,48.5C 73.4371,46.7788 72.9371,45.2788 70.5,44C 71.4491,43.3828 72.2825,43.5494 73,44.5C 75.0955,43.2845 74.9288,42.4512 72.5,42C 74.1341,41.5065 75.8008,41.3398 77.5,41.5 Z"/></g>
<g><path style="opacity:1" fill="#ecb13f" d="M 62.5,51.5 C 63.8471,52.1712 65.0138,52.1712 66,51.5C 67.1545,52.7433 68.4878,53.7433 70,54.5C 70.6667,55.1667 70.6667,55.8333 70,56.5C 68.6072,53.8749 67.4405,53.8749 66.5,56.5C 65.1667,54.8333 63.8333,53.1667 62.5,51.5 Z"/></g>
<g><path style="opacity:1" fill="#e3983d" d="M 100.5,44.5 C 105.053,52.0272 106.387,60.0272 104.5,68.5C 104.664,65.8127 104.497,63.146 104,60.5C 103.667,62.1667 103.333,63.8333 103,65.5C 102.612,64.572 101.945,63.9054 101,63.5C 98.589,65.1534 97.4223,64.4867 97.5,61.5C 99.698,61.8799 101.365,61.2132 102.5,59.5C 102.423,58.2502 101.756,57.4169 100.5,57C 101.956,56.5774 102.456,55.7441 102,54.5C 100.378,55.0989 98.8775,55.7656 97.5,56.5C 96.3143,55.2946 96.3143,53.9613 97.5,52.5C 98.3984,51.8423 99.3984,51.1757 100.5,50.5C 100.376,49.8933 100.043,49.56 99.5,49.5C 99.5,49.1667 99.5,48.8333 99.5,48.5C 100.434,47.4324 100.768,46.099 100.5,44.5 Z"/></g>
<g><path style="opacity:1" fill="#fbed74" d="M 80.5,22.5 C 81.8333,22.8333 83.1667,23.1667 84.5,23.5C 98.5549,32.5929 106.222,45.5929 107.5,62.5C 107.013,81.1717 98.6795,94.8384 82.5,103.5C 83.7888,102.363 84.7888,101.03 85.5,99.5C 86.1667,99.5 86.8333,99.5 87.5,99.5C 91.2119,96.7891 94.2119,93.4558 96.5,89.5C 99.4151,86.0099 101.582,82.0099 103,77.5C 104.149,74.6074 104.649,71.6074 104.5,68.5C 106.387,60.0272 105.053,52.0272 100.5,44.5C 96.2073,34.5535 89.5406,27.5535 80.5,23.5C 80.5,23.1667 80.5,22.8333 80.5,22.5 Z"/></g>
<g><path style="opacity:1" fill="#edbf41" d="M 21.5,58.5 C 20.6618,58.1583 20.3284,57.4916 20.5,56.5C 21.5832,56.4606 22.5832,56.1272 23.5,55.5C 23.109,56.7185 23.7756,57.5518 25.5,58C 24.2068,58.49 22.8734,58.6567 21.5,58.5 Z"/></g>
<g><path style="opacity:1" fill="#eebf41" d="M 102.5,59.5 C 101.504,59.5858 100.671,59.2524 100,58.5C 99.3333,59.1667 98.6667,59.8333 98,60.5C 98.3554,59.0406 98.1888,57.7072 97.5,56.5C 98.8775,55.7656 100.378,55.0989 102,54.5C 102.456,55.7441 101.956,56.5774 100.5,57C 101.756,57.4169 102.423,58.2502 102.5,59.5 Z"/></g>
<g><path style="opacity:1" fill="#e7af3e" d="M 20.5,65.5 C 20.9382,65.5654 21.2716,65.3988 21.5,65C 18.8875,63.9288 18.8875,63.0955 21.5,62.5C 22.7382,61.5876 24.0715,61.4209 25.5,62C 23.5188,62.6054 23.1854,63.6054 24.5,65C 23.1821,66.6298 21.8488,66.7965 20.5,65.5 Z"/></g>
<g><path style="opacity:1" fill="#e9b33e" d="M 22.5,76.5 C 22.5,76.1667 22.5,75.8333 22.5,75.5C 22.9382,75.5654 23.2716,75.3988 23.5,75C 22.8333,74.6667 22.1667,74.3333 21.5,74C 23.0268,72.3676 24.6934,72.2009 26.5,73.5C 25.3595,74.4255 25.3595,75.2588 26.5,76C 25.2341,76.3095 24.0674,76.8095 23,77.5C 22.6012,77.2716 22.4346,76.9382 22.5,76.5 Z"/></g>
<g><path style="opacity:1" fill="#f0c843" d="M 99.5,77.5 C 98.6016,76.8423 97.6016,76.1757 96.5,75.5C 96.6667,75.1667 96.8333,74.8333 97,74.5C 98.5095,75.0897 100.009,75.7564 101.5,76.5C 101.043,77.2975 100.376,77.6309 99.5,77.5 Z"/></g>
<g><path style="opacity:1" fill="#c66f2e" d="M 79.5,82.5 C 80.167,84.8194 80.3336,87.1527 80,89.5C 78.2728,86.3663 77.1061,83.033 76.5,79.5C 76.3359,76.8127 76.5026,74.146 77,71.5C 77.3333,71.8333 77.6667,72.1667 78,72.5C 78.1787,76.0252 78.6787,79.3586 79.5,82.5 Z"/></g>
<g><path style="opacity:1" fill="#eaac3e" d="M 86.5,88.5 C 86.6716,89.4916 86.3382,90.1583 85.5,90.5C 84.0689,90.1193 83.2355,89.1193 83,87.5C 82.3333,85.5 82.3333,83.5 83,81.5C 83.7724,82.8491 84.9391,83.6824 86.5,84C 82.8766,85.3048 82.8766,86.8048 86.5,88.5 Z"/></g>
<g><path style="opacity:1" fill="#e7a53c" d="M 30.5,92.5 C 28.6863,90.2359 26.853,87.9025 25,85.5C 24.2797,83.8876 24.4464,82.3876 25.5,81C 24.9056,80.5357 24.2389,80.369 23.5,80.5C 24.6883,79.6364 25.8549,78.6364 27,77.5C 27.6172,78.4491 27.4506,79.2825 26.5,80C 30.3955,81.6936 30.0622,82.8602 25.5,83.5C 26.6507,84.731 27.8173,84.731 29,83.5C 29.6172,84.4491 29.4506,85.2825 28.5,86C 29.938,86.2189 31.2713,86.7189 32.5,87.5C 31.9724,89.3361 31.3058,91.0028 30.5,92.5 Z"/></g>
<g><path style="opacity:1" fill="#df8838" d="M 90.5,86.5 C 90.4142,87.4959 90.7476,88.3292 91.5,89C 93.1341,89.4935 94.8008,89.6602 96.5,89.5C 94.2119,93.4558 91.2119,96.7891 87.5,99.5C 87.3225,98.3052 86.9891,97.1385 86.5,96C 87.5277,92.5452 88.861,89.3785 90.5,86.5 Z"/></g>
<g><path style="opacity:1" fill="#e8ac3d" d="M 99.5,77.5 C 100.234,78.7079 100.567,80.0413 100.5,81.5C 99.325,81.281 98.325,81.6143 97.5,82.5C 98.3256,83.451 98.4922,84.451 98,85.5C 96.8438,84.0072 96.0104,84.1739 95.5,86C 95.9891,87.1385 96.3225,88.3052 96.5,89.5C 94.8008,89.6602 93.1341,89.4935 91.5,89C 90.7476,88.3292 90.4142,87.4959 90.5,86.5C 90.8417,85.6618 91.5084,85.3284 92.5,85.5C 93.0249,84.2718 94.3582,83.4384 96.5,83C 93.8333,82.3333 93.8333,81.6667 96.5,81C 95.1669,79.1598 95.3335,78.6598 97,79.5C 97.4169,78.244 98.2502,77.5774 99.5,77.5 Z"/></g>
<g><path style="opacity:1" fill="#eec442" d="M 32.5,95.5 C 32.5,95.1667 32.5,94.8333 32.5,94.5C 33.4577,93.0384 34.6244,91.7051 36,90.5C 35.9232,92.7715 34.7565,94.4382 32.5,95.5 Z"/></g>
<g><path style="opacity:1" fill="#ecb23f" d="M 62.5,94.5 C 64.1992,94.3398 65.8659,94.5065 67.5,95C 62.0739,96.3723 56.7405,97.7056 51.5,99C 55.1574,97.1776 58.8241,95.6776 62.5,94.5 Z"/></g>
<g><path style="opacity:1" fill="#fadf9f" d="M 100.5,95.5 C 102.656,95.8718 102.656,96.8718 100.5,98.5C 99.4376,97.5754 99.4376,96.5754 100.5,95.5 Z"/></g>
<g><path style="opacity:1" fill="#fef6e6" d="M 96.5,99.5 C 97.3764,99.3691 98.0431,99.7025 98.5,100.5C 97.8333,102.5 96.5,103.833 94.5,104.5C 93.4173,103.635 93.2506,102.635 94,101.5C 94.9947,100.934 95.828,100.267 96.5,99.5 Z"/></g>
</svg>
