<?xml version="1.0" encoding="UTF-8"?>
<!DOCTYPE svg PUBLIC "-//W3C//DTD SVG 1.1//EN" "http://www.w3.org/Graphics/SVG/1.1/DTD/svg11.dtd">
<svg xmlns="http://www.w3.org/2000/svg" version="1.1" width="128px" height="128px" style="shape-rendering:geometricPrecision; text-rendering:geometricPrecision; image-rendering:optimizeQuality; fill-rule:evenodd; clip-rule:evenodd" xmlns:xlink="http://www.w3.org/1999/xlink">
<g><path style="opacity:0.986" fill="#f4d351" d="M 79.5,7.5 C 82.8333,9.16667 86.1667,10.8333 89.5,12.5C 88.2459,16.1756 86.5793,19.6756 84.5,23C 85.3805,23.7083 86.0472,24.5416 86.5,25.5C 84.8333,24.8333 83.1667,24.1667 81.5,23.5C 79.8362,21.3209 80.1695,19.4875 82.5,18C 79.7782,19.0703 77.6115,18.237 76,15.5C 75.805,16.8193 75.9717,18.1526 76.5,19.5C 74.7085,19.634 73.0418,19.3007 71.5,18.5C 46.1304,15.0322 28.2971,25.0322 18,48.5C 12.6578,69.8068 18.4911,87.3068 35.5,101C 36.745,101.791 38.0783,102.291 39.5,102.5C 40.4363,103.974 41.7697,104.974 43.5,105.5C 41.5617,109.043 39.8951,112.71 38.5,116.5C 15.7053,106.115 3.70533,88.2812 2.5,63C 4.60886,33.7657 19.6089,14.7657 47.5,6C 58.4372,3.68555 69.1039,4.18555 79.5,7.5 Z"/></g>
<g><path style="opacity:1" fill="#f0b92e" d="M 89.5,12.5 C 115.156,28.2686 124.323,50.9352 117,80.5C 106.627,107.681 86.7942,121.347 57.5,121.5C 50.6264,121.465 44.2931,119.798 38.5,116.5C 39.8951,112.71 41.5617,109.043 43.5,105.5C 59.4697,110.773 74.4697,108.773 88.5,99.5C 95.5631,95.3786 100.23,89.3786 102.5,81.5C 109.706,66.9109 108.872,52.5775 100,38.5C 98.284,35.6218 96.1173,33.2885 93.5,31.5C 90.5677,30.2003 88.2344,28.2003 86.5,25.5C 86.0472,24.5416 85.3805,23.7083 84.5,23C 86.5793,19.6756 88.2459,16.1756 89.5,12.5 Z"/></g>
<g><path style="opacity:1" fill="#cd6531" d="M 71.5,18.5 C 51.9528,18.771 36.9528,27.1044 26.5,43.5C 26.5,43.8333 26.5,44.1667 26.5,44.5C 24.3369,47.8335 23.0036,51.5002 22.5,55.5C 21.5139,59.97 21.1805,64.6367 21.5,69.5C 21.5,69.8333 21.5,70.1667 21.5,70.5C 23.3487,83.5335 29.3487,94.2002 39.5,102.5C 38.0783,102.291 36.745,101.791 35.5,101C 18.4911,87.3068 12.6578,69.8068 18,48.5C 28.2971,25.0322 46.1304,15.0322 71.5,18.5 Z"/></g>
<g><path style="opacity:1" fill="#fdf5e8" d="M 81.5,23.5 C 79.4225,20.9289 77.2558,20.9289 75,23.5C 74.7003,21.9343 75.2003,20.601 76.5,19.5C 75.9717,18.1526 75.805,16.8193 76,15.5C 77.6115,18.237 79.7782,19.0703 82.5,18C 80.1695,19.4875 79.8362,21.3209 81.5,23.5 Z"/></g>
<g><path style="opacity:1" fill="#df8637" d="M 71.5,18.5 C 73.0418,19.3007 74.7085,19.634 76.5,19.5C 75.2003,20.601 74.7003,21.9343 75,23.5C 77.2558,20.9289 79.4225,20.9289 81.5,23.5C 83.1667,24.1667 84.8333,24.8333 86.5,25.5C 88.2344,28.2003 90.5677,30.2003 93.5,31.5C 105.721,46.4077 108.721,63.0743 102.5,81.5C 98.8113,88.1847 94.1447,94.1847 88.5,99.5C 74.4697,108.773 59.4697,110.773 43.5,105.5C 41.7697,104.974 40.4363,103.974 39.5,102.5C 29.3487,94.2002 23.3487,83.5335 21.5,70.5C 23.1238,70.3601 24.2904,71.0267 25,72.5C 28.4621,72.017 28.9621,70.8504 26.5,69C 26.8333,68.6667 27.1667,68.3333 27.5,68C 26.2341,67.6905 25.0674,67.1905 24,66.5C 23.7645,68.1193 22.9311,69.1193 21.5,69.5C 21.1805,64.6367 21.5139,59.97 22.5,55.5C 23.0036,51.5002 24.3369,47.8335 26.5,44.5C 28.3464,47.5078 30.0131,47.6745 31.5,45C 30.8095,43.9326 30.3095,42.7659 30,41.5C 29.1841,42.8228 28.0174,43.4894 26.5,43.5C 36.9528,27.1044 51.9528,18.771 71.5,18.5 Z"/></g>
<g><path style="opacity:1" fill="#fefbef" d="M 28.5,20.5 C 30.2252,20.8425 30.7252,21.8425 30,23.5C 28.7365,25.607 26.9032,26.607 24.5,26.5C 24.6574,23.6824 25.9908,21.6824 28.5,20.5 Z"/></g>
<g><path style="opacity:1" fill="#f3d04f" d="M 60.5,23.5 C 61.5336,24.6871 62.867,25.5204 64.5,26C 62.3117,29.0733 60.3117,29.0733 58.5,26C 59.756,25.5831 60.4226,24.7498 60.5,23.5 Z"/></g>
<g><path style="opacity:0.92" fill="#c4652e" d="M 79.5,7.5 C 107.933,15.4907 122.933,34.324 124.5,64C 122.73,91.4293 109.063,110.096 83.5,120C 74.7822,122.421 66.1155,122.921 57.5,121.5C 86.7942,121.347 106.627,107.681 117,80.5C 124.323,50.9352 115.156,28.2686 89.5,12.5C 86.1667,10.8333 82.8333,9.16667 79.5,7.5 Z"/></g>
<g><path style="opacity:1" fill="#f2cb4e" d="M 47.5,26.5 C 48.8734,26.3433 50.2068,26.51 51.5,27C 50.5721,28.9755 49.4054,30.8089 48,32.5C 47.6824,30.9391 46.8491,29.7724 45.5,29C 46.756,28.5831 47.4226,27.7498 47.5,26.5 Z"/></g>
<g><path style="opacity:1" fill="#f3cf4f" d="M 72.5,25.5 C 75.8815,27.4167 76.0482,29.4167 73,31.5C 72.5,30.3333 71.6667,29.5 70.5,29C 71.8228,28.1841 72.4894,27.0174 72.5,25.5 Z"/></g>
<g><path style="opacity:1" fill="#fdf9e7" d="M 21.5,28.5 C 22.6878,30.4959 22.0211,31.3293 19.5,31C 20.3805,30.2917 21.0472,29.4584 21.5,28.5 Z"/></g>
<g><path style="opacity:1" fill="#f1ca4d" d="M 35.5,32.5 C 36.6879,33.6843 37.8545,33.6843 39,32.5C 39.3095,33.7659 39.8095,34.9326 40.5,36C 39.3333,36.5 38.5,37.3333 38,38.5C 37.0975,37.2986 35.9308,36.4652 34.5,36C 35.3366,34.9887 35.67,33.8221 35.5,32.5 Z"/></g>
<g><path style="opacity:1" fill="#f0c84d" d="M 84.5,31.5 C 85.1859,32.8484 86.1859,34.015 87.5,35C 86.8095,36.0674 86.3095,37.2341 86,38.5C 84.9887,37.6634 83.8221,37.33 82.5,37.5C 82.67,36.1779 82.3366,35.0113 81.5,34C 83.1193,33.7645 84.1193,32.9311 84.5,31.5 Z"/></g>
<g><path style="opacity:1" fill="#f3cf4f" d="M 65.5,45.5 C 64.1952,47.3972 63.5286,49.7305 63.5,52.5C 63.5034,55.0254 63.8367,57.3587 64.5,59.5C 68.0361,60.6013 71.3695,62.268 74.5,64.5C 78.3698,74.9832 74.7032,80.9832 63.5,82.5C 62.5489,83.9187 62.2155,85.5853 62.5,87.5C 61.5,87.5 60.5,87.5 59.5,87.5C 59.5,85.5 59.5,83.5 59.5,81.5C 55.7267,81.7367 52.0601,81.2367 48.5,80C 45.6967,77.7783 45.8634,75.9449 49,74.5C 52.2218,76.3483 55.7218,77.3483 59.5,77.5C 59.8266,72.7863 59.4933,68.1196 58.5,63.5C 45.6552,60.0105 43.3218,53.1772 51.5,43C 54.022,41.6591 56.6887,40.8257 59.5,40.5C 59.0508,38.0225 59.7175,36.0225 61.5,34.5C 63.2825,36.0225 63.9492,38.0225 63.5,40.5C 67.2939,40.4808 70.7939,41.4808 74,43.5C 74.7828,45.3185 74.2828,46.6518 72.5,47.5C 70.1987,46.6751 67.8654,46.0084 65.5,45.5 Z"/></g>
<g><path style="opacity:1" fill="#f9e36d" d="M 93.5,31.5 C 96.1173,33.2885 98.284,35.6218 100,38.5C 108.872,52.5775 109.706,66.9109 102.5,81.5C 108.721,63.0743 105.721,46.4077 93.5,31.5 Z"/></g>
<g><path style="opacity:1" fill="#f3cf4f" d="M 26.5,44.5 C 26.5,44.1667 26.5,43.8333 26.5,43.5C 28.0174,43.4894 29.1841,42.8228 30,41.5C 30.3095,42.7659 30.8095,43.9326 31.5,45C 30.0131,47.6745 28.3464,47.5078 26.5,44.5 Z"/></g>
<g><path style="opacity:1" fill="#f1c94d" d="M 93.5,41.5 C 94.1859,42.8484 95.1859,44.015 96.5,45C 92.7824,48.3916 90.949,47.5583 91,42.5C 92.159,43.566 92.9924,43.2327 93.5,41.5 Z"/></g>
<g><path style="opacity:1" fill="#cb7130" d="M 58.5,45.5 C 59.8111,49.6829 59.8111,54.0162 58.5,58.5C 49.2314,54.0172 49.2314,49.6839 58.5,45.5 Z"/></g>
<g><path style="opacity:1" fill="#c0622c" d="M 65.5,45.5 C 66.1115,47.913 66.4448,50.413 66.5,53C 66.4668,55.6103 65.8001,57.777 64.5,59.5C 63.8367,57.3587 63.5034,55.0254 63.5,52.5C 63.5286,49.7305 64.1952,47.3972 65.5,45.5 Z"/></g>
<g><path style="opacity:1" fill="#f3d04f" d="M 22.5,55.5 C 28.2553,54.6446 28.7553,55.9779 24,59.5C 23.2086,58.255 22.7086,56.9217 22.5,55.5 Z"/></g>
<g><path style="opacity:1" fill="#f0c74d" d="M 95.5,53.5 C 96.7079,54.2341 98.0413,54.5674 99.5,54.5C 99.33,55.8221 99.6634,56.9887 100.5,58C 98.9391,58.3176 97.7724,59.1509 97,60.5C 96.5348,59.0692 95.7014,57.9025 94.5,57C 95.3366,55.9887 95.67,54.8221 95.5,53.5 Z"/></g>
<g><path style="opacity:1" fill="#c3672d" d="M 63.5,82.5 C 74.7032,80.9832 78.3698,74.9832 74.5,64.5C 74.56,63.9569 74.8933,63.6236 75.5,63.5C 82.1389,69.2475 82.1389,75.0809 75.5,81C 72.6883,82.5489 69.6883,83.3822 66.5,83.5C 66.5,85.5 66.5,87.5 66.5,89.5C 65.5,89.5 64.5,89.5 63.5,89.5C 63.5,87.1667 63.5,84.8333 63.5,82.5 Z"/></g>
<g><path style="opacity:1" fill="#e7ac44" d="M 64.5,65.5 C 63.8389,67.134 63.5056,68.9674 63.5,71C 63.5465,73.2953 64.2132,75.1286 65.5,76.5C 64.791,77.404 63.791,77.7373 62.5,77.5C 62.1744,73.1161 62.5078,68.7828 63.5,64.5C 64.1067,64.6236 64.44,64.9569 64.5,65.5 Z"/></g>
<g><path style="opacity:1" fill="#c3662d" d="M 64.5,65.5 C 65.609,65.5569 66.609,65.8902 67.5,66.5C 67.5,69.8333 67.5,73.1667 67.5,76.5C 66.8333,76.5 66.1667,76.5 65.5,76.5C 64.2132,75.1286 63.5465,73.2953 63.5,71C 63.5056,68.9674 63.8389,67.134 64.5,65.5 Z"/></g>
<g><path style="opacity:1" fill="#f0c84c" d="M 21.5,70.5 C 21.5,70.1667 21.5,69.8333 21.5,69.5C 22.9311,69.1193 23.7645,68.1193 24,66.5C 25.0674,67.1905 26.2341,67.6905 27.5,68C 27.1667,68.3333 26.8333,68.6667 26.5,69C 28.9621,70.8504 28.4621,72.017 25,72.5C 24.2904,71.0267 23.1238,70.3601 21.5,70.5 Z"/></g>
<g><path style="opacity:1" fill="#e28e39" d="M 67.5,66.5 C 69.8184,66.8184 71.1517,68.1517 71.5,70.5C 71.1481,73.217 69.8147,75.217 67.5,76.5C 67.5,73.1667 67.5,69.8333 67.5,66.5 Z"/></g>
<g><path style="opacity:1" fill="#f1c94d" d="M 96.5,66.5 C 98.7114,67.9231 99.5447,69.9231 99,72.5C 98,71.1667 97,71.1667 96,72.5C 95.5348,71.0692 94.7014,69.9025 93.5,69C 95.1193,68.7645 96.1193,67.9311 96.5,66.5 Z"/></g>
<g><path style="opacity:1" fill="#f0c84d" d="M 26.5,78.5 C 28.8679,79.0138 30.8679,80.1805 32.5,82C 31.3333,82.5 30.5,83.3333 30,84.5C 28.9326,83.8095 27.7659,83.3095 26.5,83C 27.4132,81.5861 27.4132,80.0861 26.5,78.5 Z"/></g>
<g><path style="opacity:1" fill="#efc54c" d="M 92.5,78.5 C 93.5336,79.6871 94.867,80.5204 96.5,81C 95.2986,81.9025 94.4652,83.0692 94,84.5C 92.9887,83.6634 91.8221,83.33 90.5,83.5C 90.67,82.1779 90.3366,81.0113 89.5,80C 90.7375,79.7679 91.7375,79.2679 92.5,78.5 Z"/></g>
<g><path style="opacity:1" fill="#f0c44b" d="M 37.5,87.5 C 38.1859,88.8484 39.1859,90.015 40.5,91C 38.9276,94.9418 36.9276,94.7751 34.5,90.5C 35.7701,89.7124 36.7701,88.7124 37.5,87.5 Z"/></g>
<g><path style="opacity:1" fill="#f3ce4e" d="M 82.5,88.5 C 83.6879,89.6843 84.8545,89.6843 86,88.5C 86.3095,89.7659 86.8095,90.9326 87.5,92C 86.3333,92.5 85.5,93.3333 85,94.5C 83.331,92.8309 82.4977,90.8309 82.5,88.5 Z"/></g>
<g><path style="opacity:1" fill="#f3cf4f" d="M 47.5,94.5 C 50.8815,96.4167 51.0482,98.4167 48,100.5C 47.5,99.3333 46.6667,98.5 45.5,98C 46.8228,97.1841 47.4894,96.0174 47.5,94.5 Z"/></g>
<g><path style="opacity:1" fill="#f1c84d" d="M 72.5,94.5 C 73.766,95.0899 75.0993,95.5899 76.5,96C 75.1667,97 75.1667,98 76.5,99C 74.9391,99.3176 73.7724,100.151 73,101.5C 72.6824,99.9391 71.8491,98.7724 70.5,98C 71.8228,97.1841 72.4894,96.0174 72.5,94.5 Z"/></g>
<g><path style="opacity:1" fill="#f7de68" d="M 102.5,81.5 C 100.23,89.3786 95.5631,95.3786 88.5,99.5C 94.1447,94.1847 98.8113,88.1847 102.5,81.5 Z"/></g>
<g><path style="opacity:1" fill="#fadf9f" d="M 100.5,95.5 C 102.656,95.8718 102.656,96.8718 100.5,98.5C 99.4376,97.5754 99.4376,96.5754 100.5,95.5 Z"/></g>
<g><path style="opacity:1" fill="#f1c94d" d="M 60.5,96.5 C 61.5336,97.6871 62.867,98.5204 64.5,99C 63.2986,99.9025 62.4652,101.069 62,102.5C 61.3333,101.167 60.6667,101.167 60,102.5C 59.5348,101.069 58.7014,99.9025 57.5,99C 59.1193,98.7645 60.1193,97.9311 60.5,96.5 Z"/></g>
<g><path style="opacity:1" fill="#fef6e6" d="M 96.5,99.5 C 97.3764,99.3691 98.0431,99.7025 98.5,100.5C 97.8333,102.5 96.5,103.833 94.5,104.5C 93.4173,103.635 93.2506,102.635 94,101.5C 94.9947,100.934 95.828,100.267 96.5,99.5 Z"/></g>
</svg>
